<?xml version="1.0" encoding="utf-8" standalone="no"?>
<!DOCTYPE svg PUBLIC "-//W3C//DTD SVG 1.1//EN"
  "http://www.w3.org/Graphics/SVG/1.1/DTD/svg11.dtd">
<svg xmlns:xlink="http://www.w3.org/1999/xlink" width="478.52pt" height="312.171375pt" viewBox="0 0 478.52 312.171375" xmlns="http://www.w3.org/2000/svg" version="1.1">
 <metadata>
  <rdf:RDF xmlns:dc="http://purl.org/dc/elements/1.1/" xmlns:cc="http://creativecommons.org/ns#" xmlns:rdf="http://www.w3.org/1999/02/22-rdf-syntax-ns#">
   <cc:Work>
    <dc:type rdf:resource="http://purl.org/dc/dcmitype/StillImage"/>
    <dc:date>2021-12-08T01:05:52.089068</dc:date>
    <dc:format>image/svg+xml</dc:format>
    <dc:creator>
     <cc:Agent>
      <dc:title>Matplotlib v3.5.0, https://matplotlib.org/</dc:title>
     </cc:Agent>
    </dc:creator>
   </cc:Work>
  </rdf:RDF>
 </metadata>
 <defs>
  <style type="text/css">*{stroke-linejoin: round; stroke-linecap: butt}</style>
 </defs>
 <g id="figure_1">
  <g id="patch_1">
   <path d="M 0 312.171375 
L 478.52 312.171375 
L 478.52 0 
L 0 0 
z
" style="fill: #ffffff"/>
  </g>
  <g id="axes_1">
   <g id="patch_2">
    <path d="M 114.2 273.312 
L 471.32 273.312 
L 471.32 7.2 
L 114.2 7.2 
z
" style="fill: #e5e5e5"/>
   </g>
   <g id="matplotlib.axis_1">
    <g id="xtick_1">
     <g id="line2d_1">
      <path d="M 114.2 273.312 
L 114.2 7.2 
" clip-path="url(#pf9c0dc3474)" style="fill: none; stroke: #ffffff; stroke-width: 0.8; stroke-linecap: square"/>
     </g>
     <g id="line2d_2">
      <defs>
       <path id="mb1c72c1cde" d="M 0 0 
L 0 3.5 
" style="stroke: #555555; stroke-width: 0.8"/>
      </defs>
      <g>
       <use xlink:href="#mb1c72c1cde" x="114.2" y="273.312" style="fill: #555555; stroke: #555555; stroke-width: 0.8"/>
      </g>
     </g>
     <g id="text_1">
      <!-- 0 -->
      <g style="fill: #555555" transform="translate(111.050781 287.802625)scale(0.1 -0.1)">
       <defs>
        <path id="IPAexGothic-30" d="M 2038 4725 
Q 2881 4725 3334 3944 
Q 3694 3325 3694 2344 
Q 3694 1372 3334 741 
Q 2888 -31 2016 -31 
Q 1147 -31 700 741 
Q 341 1372 341 2350 
Q 341 3713 1000 4334 
Q 1419 4725 2038 4725 
z
M 2016 4266 
Q 1516 4266 1228 3759 
Q 934 3247 934 2344 
Q 934 1456 1222 947 
Q 1513 447 2016 447 
Q 2619 447 2909 1153 
Q 3100 1622 3100 2375 
Q 3100 3256 2806 3759 
Q 2509 4266 2016 4266 
z
" transform="scale(0.015625)"/>
       </defs>
       <use xlink:href="#IPAexGothic-30"/>
      </g>
     </g>
    </g>
    <g id="xtick_2">
     <g id="line2d_3">
      <path d="M 170.885714 273.312 
L 170.885714 7.2 
" clip-path="url(#pf9c0dc3474)" style="fill: none; stroke: #ffffff; stroke-width: 0.8; stroke-linecap: square"/>
     </g>
     <g id="line2d_4">
      <g>
       <use xlink:href="#mb1c72c1cde" x="170.885714" y="273.312" style="fill: #555555; stroke: #555555; stroke-width: 0.8"/>
      </g>
     </g>
     <g id="text_2">
      <!-- 1 -->
      <g style="fill: #555555" transform="translate(167.736496 287.802625)scale(0.1 -0.1)">
       <defs>
        <path id="IPAexGothic-31" d="M 2463 63 
L 1900 63 
L 1900 4103 
Q 1372 3922 788 3797 
L 684 4231 
Q 1519 4441 2106 4731 
L 2463 4731 
L 2463 63 
z
" transform="scale(0.015625)"/>
       </defs>
       <use xlink:href="#IPAexGothic-31"/>
      </g>
     </g>
    </g>
    <g id="xtick_3">
     <g id="line2d_5">
      <path d="M 227.571429 273.312 
L 227.571429 7.2 
" clip-path="url(#pf9c0dc3474)" style="fill: none; stroke: #ffffff; stroke-width: 0.8; stroke-linecap: square"/>
     </g>
     <g id="line2d_6">
      <g>
       <use xlink:href="#mb1c72c1cde" x="227.571429" y="273.312" style="fill: #555555; stroke: #555555; stroke-width: 0.8"/>
      </g>
     </g>
     <g id="text_3">
      <!-- 2 -->
      <g style="fill: #555555" transform="translate(224.42221 287.802625)scale(0.1 -0.1)">
       <defs>
        <path id="IPAexGothic-32" d="M 3659 63 
L 447 63 
L 447 594 
Q 825 1475 1894 2203 
L 2072 2322 
Q 2619 2697 2791 2906 
Q 2988 3153 2988 3444 
Q 2988 3772 2756 4003 
Q 2500 4259 2084 4259 
Q 1250 4259 991 3328 
L 497 3506 
Q 853 4725 2116 4725 
Q 2806 4725 3216 4316 
Q 3575 3947 3575 3425 
Q 3575 3038 3344 2722 
Q 3131 2416 2366 1938 
L 2231 1856 
Q 1256 1253 978 569 
L 3659 569 
L 3659 63 
z
" transform="scale(0.015625)"/>
       </defs>
       <use xlink:href="#IPAexGothic-32"/>
      </g>
     </g>
    </g>
    <g id="xtick_4">
     <g id="line2d_7">
      <path d="M 284.257143 273.312 
L 284.257143 7.2 
" clip-path="url(#pf9c0dc3474)" style="fill: none; stroke: #ffffff; stroke-width: 0.8; stroke-linecap: square"/>
     </g>
     <g id="line2d_8">
      <g>
       <use xlink:href="#mb1c72c1cde" x="284.257143" y="273.312" style="fill: #555555; stroke: #555555; stroke-width: 0.8"/>
      </g>
     </g>
     <g id="text_4">
      <!-- 3 -->
      <g style="fill: #555555" transform="translate(281.107924 287.802625)scale(0.1 -0.1)">
       <defs>
        <path id="IPAexGothic-33" d="M 2381 2419 
Q 3506 2216 3506 1278 
Q 3506 716 3128 356 
Q 2709 -31 1944 -31 
Q 797 -31 288 881 
L 756 1131 
Q 1109 441 1938 441 
Q 2425 441 2694 691 
Q 2950 928 2950 1291 
Q 2950 1719 2566 1978 
Q 2216 2213 1644 2213 
L 1363 2213 
L 1363 2669 
L 1656 2669 
Q 2231 2669 2534 2888 
Q 2859 3119 2859 3509 
Q 2859 3934 2494 4138 
Q 2259 4278 1931 4278 
Q 1238 4278 903 3578 
L 434 3803 
Q 897 4725 1938 4725 
Q 2597 4725 3006 4394 
Q 3416 4069 3416 3534 
Q 3416 3028 3019 2706 
Q 2763 2500 2381 2444 
L 2381 2419 
z
" transform="scale(0.015625)"/>
       </defs>
       <use xlink:href="#IPAexGothic-33"/>
      </g>
     </g>
    </g>
    <g id="xtick_5">
     <g id="line2d_9">
      <path d="M 340.942857 273.312 
L 340.942857 7.2 
" clip-path="url(#pf9c0dc3474)" style="fill: none; stroke: #ffffff; stroke-width: 0.8; stroke-linecap: square"/>
     </g>
     <g id="line2d_10">
      <g>
       <use xlink:href="#mb1c72c1cde" x="340.942857" y="273.312" style="fill: #555555; stroke: #555555; stroke-width: 0.8"/>
      </g>
     </g>
     <g id="text_5">
      <!-- 4 -->
      <g style="fill: #555555" transform="translate(337.793638 287.802625)scale(0.1 -0.1)">
       <defs>
        <path id="IPAexGothic-34" d="M 3813 1159 
L 3059 1159 
L 3059 63 
L 2547 63 
L 2547 1159 
L 197 1159 
L 197 1672 
L 2456 4678 
L 3059 4678 
L 3059 1634 
L 3813 1634 
L 3813 1159 
z
M 2578 4109 
L 2559 4109 
Q 2278 3656 2003 3284 
L 759 1634 
L 2547 1634 
L 2547 3144 
Q 2547 3481 2578 4109 
z
" transform="scale(0.015625)"/>
       </defs>
       <use xlink:href="#IPAexGothic-34"/>
      </g>
     </g>
    </g>
    <g id="xtick_6">
     <g id="line2d_11">
      <path d="M 397.628571 273.312 
L 397.628571 7.2 
" clip-path="url(#pf9c0dc3474)" style="fill: none; stroke: #ffffff; stroke-width: 0.8; stroke-linecap: square"/>
     </g>
     <g id="line2d_12">
      <g>
       <use xlink:href="#mb1c72c1cde" x="397.628571" y="273.312" style="fill: #555555; stroke: #555555; stroke-width: 0.8"/>
      </g>
     </g>
     <g id="text_6">
      <!-- 5 -->
      <g style="fill: #555555" transform="translate(394.479353 287.802625)scale(0.1 -0.1)">
       <defs>
        <path id="IPAexGothic-35" d="M 1178 2603 
Q 1634 2963 2172 2963 
Q 2816 2963 3241 2528 
Q 3638 2113 3638 1497 
Q 3638 938 3297 513 
Q 2869 -31 2031 -31 
Q 959 -31 469 784 
L 938 1028 
Q 1309 434 2013 434 
Q 2466 434 2769 716 
Q 3081 1013 3081 1503 
Q 3081 1966 2806 2241 
Q 2519 2528 2056 2528 
Q 1406 2528 1072 2028 
L 591 2091 
L 884 4634 
L 3406 4634 
L 3406 4153 
L 1341 4153 
L 1134 2603 
L 1178 2603 
z
" transform="scale(0.015625)"/>
       </defs>
       <use xlink:href="#IPAexGothic-35"/>
      </g>
     </g>
    </g>
    <g id="xtick_7">
     <g id="line2d_13">
      <path d="M 454.314286 273.312 
L 454.314286 7.2 
" clip-path="url(#pf9c0dc3474)" style="fill: none; stroke: #ffffff; stroke-width: 0.8; stroke-linecap: square"/>
     </g>
     <g id="line2d_14">
      <g>
       <use xlink:href="#mb1c72c1cde" x="454.314286" y="273.312" style="fill: #555555; stroke: #555555; stroke-width: 0.8"/>
      </g>
     </g>
     <g id="text_7">
      <!-- 6 -->
      <g style="fill: #555555" transform="translate(451.165067 287.802625)scale(0.1 -0.1)">
       <defs>
        <path id="IPAexGothic-36" d="M 1056 2328 
Q 1509 2981 2234 2981 
Q 2906 2981 3316 2513 
Q 3675 2106 3675 1522 
Q 3675 884 3272 434 
Q 2853 -31 2178 -31 
Q 1375 -31 922 581 
Q 481 1178 481 2228 
Q 481 3425 1013 4109 
Q 1494 4725 2272 4725 
Q 3191 4725 3609 4025 
L 3150 3775 
Q 2894 4266 2300 4266 
Q 1119 4266 1031 2328 
L 1056 2328 
z
M 2141 2547 
Q 1684 2547 1384 2206 
Q 1116 1900 1116 1541 
Q 1116 1156 1353 844 
Q 1672 428 2159 428 
Q 2669 428 2941 844 
Q 3125 1128 3125 1503 
Q 3125 1944 2881 2228 
Q 2600 2547 2141 2547 
z
" transform="scale(0.015625)"/>
       </defs>
       <use xlink:href="#IPAexGothic-36"/>
      </g>
     </g>
    </g>
    <g id="text_8">
     <!-- 個体数 -->
     <g style="fill: #555555" transform="translate(274.76 302.691375)scale(0.12 -0.12)">
      <defs>
       <path id="IPAexGothic-500b" d="M 1403 3794 
L 1403 -447 
L 975 -447 
L 975 2881 
L 944 2828 
Q 716 2397 425 2009 
L 188 2406 
Q 966 3513 1453 5288 
L 1888 5172 
Q 1644 4384 1403 3794 
z
M 4144 2484 
L 4909 2484 
L 4909 781 
L 2984 781 
L 2984 2484 
L 3722 2484 
L 3722 3169 
L 2684 3169 
L 2684 3553 
L 3722 3553 
L 3722 4322 
L 4144 4322 
L 4144 3553 
L 5228 3553 
L 5228 3169 
L 4144 3169 
L 4144 2484 
z
M 4500 2113 
L 3394 2113 
L 3394 1166 
L 4500 1166 
L 4500 2113 
z
M 5859 4922 
L 5859 -450 
L 5431 -450 
L 5431 -91 
L 2484 -91 
L 2484 -450 
L 2056 -450 
L 2056 4922 
L 5859 4922 
z
M 2484 4525 
L 2484 306 
L 5431 306 
L 5431 4525 
L 2484 4525 
z
" transform="scale(0.015625)"/>
       <path id="IPAexGothic-4f53" d="M 4253 3481 
Q 4869 2069 6041 1138 
L 5688 703 
Q 4541 1841 4069 3122 
L 4069 1228 
L 4925 1228 
L 4925 831 
L 4081 831 
L 4081 -450 
L 3613 -450 
L 3613 831 
L 2781 831 
L 2781 1228 
L 3628 1228 
L 3628 3097 
Q 3216 1703 2063 556 
L 1706 928 
Q 2844 1875 3441 3481 
L 1969 3481 
L 1969 3897 
L 3613 3897 
L 3613 5209 
L 4081 5209 
L 4081 3897 
L 5872 3897 
L 5872 3481 
L 4253 3481 
z
M 1572 3700 
L 1572 -441 
L 1119 -441 
L 1119 2778 
Q 888 2363 550 1913 
L 300 2303 
Q 1219 3575 1591 5241 
L 2041 5125 
Q 1844 4356 1572 3700 
z
" transform="scale(0.015625)"/>
       <path id="IPAexGothic-6570" d="M 2847 1553 
Q 2741 1006 2425 534 
Q 2625 441 3091 203 
L 2809 -188 
Q 2541 0 2144 209 
Q 1569 -291 703 -500 
L 422 -125 
Q 1263 19 1747 406 
Q 1222 650 734 816 
Q 975 1172 1147 1503 
L 1172 1553 
L 359 1553 
L 359 1925 
L 1344 1925 
Q 1406 2066 1569 2475 
L 1691 2450 
L 1691 3372 
Q 1250 2738 550 2303 
L 275 2663 
Q 1019 3013 1528 3641 
L 378 3641 
L 378 4006 
L 1691 4006 
L 1691 5313 
L 2113 5313 
L 2113 4006 
L 3297 4006 
L 3297 3641 
L 2113 3641 
L 2113 3513 
Q 2659 3291 3175 2963 
L 2956 2584 
Q 2553 2922 2113 3159 
L 2113 2372 
L 1966 2372 
Q 1928 2288 1872 2141 
Q 1806 1975 1784 1925 
L 3378 1925 
L 3378 1553 
L 2847 1553 
z
M 2419 1553 
L 1613 1553 
Q 1478 1269 1313 997 
Q 1559 909 2047 703 
Q 2313 1047 2419 1553 
z
M 4363 1163 
Q 3953 1781 3738 2638 
Q 3575 2281 3428 2016 
L 3103 2406 
Q 3675 3444 3916 5291 
L 4363 5200 
Q 4284 4666 4197 4197 
L 6009 4197 
L 6009 3775 
L 5503 3775 
Q 5397 2275 4869 1191 
Q 5419 503 6144 75 
L 5822 -378 
Q 5188 106 4631 788 
Q 4113 34 3341 -463 
L 3031 -78 
Q 3888 406 4363 1163 
z
M 4588 1594 
Q 4938 2388 5059 3775 
L 4100 3775 
Q 4041 3519 3972 3288 
Q 3981 3250 3991 3194 
Q 4175 2256 4588 1594 
z
M 1003 4116 
Q 878 4544 638 4934 
L 1053 5094 
Q 1247 4788 1438 4269 
L 1003 4116 
z
M 2316 4269 
Q 2550 4688 2688 5131 
L 3128 4997 
Q 2966 4588 2675 4128 
L 2316 4269 
z
" transform="scale(0.015625)"/>
      </defs>
      <use xlink:href="#IPAexGothic-500b"/>
      <use xlink:href="#IPAexGothic-4f53" x="100"/>
      <use xlink:href="#IPAexGothic-6570" x="200"/>
     </g>
    </g>
   </g>
   <g id="matplotlib.axis_2">
    <g id="ytick_1">
     <g id="line2d_15">
      <path d="M 114.2 248.809846 
L 471.32 248.809846 
" clip-path="url(#pf9c0dc3474)" style="fill: none; stroke: #ffffff; stroke-width: 0.8; stroke-linecap: square"/>
     </g>
     <g id="line2d_16">
      <defs>
       <path id="m0f9f383b40" d="M 0 0 
L -3.5 0 
" style="stroke: #555555; stroke-width: 0.8"/>
      </defs>
      <g>
       <use xlink:href="#m0f9f383b40" x="114.2" y="248.809846" style="fill: #555555; stroke: #555555; stroke-width: 0.8"/>
      </g>
     </g>
     <g id="text_9">
      <!-- ナガレトビケラ -->
      <g style="fill: #555555" transform="translate(37.2 252.555159)scale(0.1 -0.1)">
       <defs>
        <path id="IPAexGothic-30ca" d="M 3103 4959 
L 3634 4959 
L 3634 3488 
L 5706 3488 
L 5706 2994 
L 3634 2994 
Q 3597 1753 3256 1113 
Q 2825 306 1906 -188 
L 1522 228 
Q 2416 641 2809 1419 
Q 3075 1950 3103 2994 
L 691 2994 
L 691 3488 
L 3103 3488 
L 3103 4959 
z
" transform="scale(0.015625)"/>
        <path id="IPAexGothic-30ac" d="M 2734 4981 
L 3247 4981 
L 3247 3694 
L 5250 3694 
L 5250 3425 
Q 5250 1334 5019 500 
Q 4856 -84 4297 -84 
Q 3788 -84 3247 172 
L 3228 731 
Q 3859 441 4200 441 
Q 4484 441 4553 763 
Q 4706 1478 4738 3234 
L 3206 3234 
Q 3025 906 1159 -134 
L 769 263 
Q 2519 1134 2700 3209 
L 916 3209 
L 916 3669 
L 2734 3669 
L 2734 4981 
z
M 5850 4359 
Q 5488 4900 5094 5228 
L 5394 5459 
Q 5778 5150 6169 4634 
L 5850 4359 
z
M 5253 3891 
Q 4966 4381 4519 4781 
L 4831 5025 
Q 5203 4716 5588 4166 
L 5253 3891 
z
" transform="scale(0.015625)"/>
        <path id="IPAexGothic-30ec" d="M 1538 4706 
L 2075 4706 
L 2075 622 
Q 4059 1375 5172 2894 
L 5481 2431 
Q 4922 1678 3931 1019 
Q 2919 334 1928 -31 
L 1538 269 
L 1538 4706 
z
" transform="scale(0.015625)"/>
        <path id="IPAexGothic-30c8" d="M 2284 4997 
L 2803 4997 
L 2803 3206 
Q 4088 2619 5216 1888 
L 4878 1369 
Q 3819 2175 2803 2688 
L 2803 -184 
L 2284 -184 
L 2284 4997 
z
" transform="scale(0.015625)"/>
        <path id="IPAexGothic-30d3" d="M 1356 4775 
L 1881 4775 
L 1881 2778 
Q 3553 3153 4747 3891 
L 5131 3475 
Q 3644 2681 1881 2297 
L 1881 1063 
Q 1881 744 2072 669 
Q 2266 584 3163 584 
Q 4169 584 5394 716 
L 5394 206 
Q 4259 97 3263 97 
Q 1938 97 1644 294 
Q 1356 478 1356 966 
L 1356 4775 
z
M 5972 4250 
Q 5609 4791 5216 5119 
L 5516 5350 
Q 5900 5041 6291 4525 
L 5972 4250 
z
M 5375 3781 
Q 5084 4272 4641 4672 
L 4953 4916 
Q 5325 4606 5709 4056 
L 5375 3781 
z
" transform="scale(0.015625)"/>
        <path id="IPAexGothic-30b1" d="M 5638 3275 
L 4178 3275 
Q 4141 1972 3738 1234 
Q 3241 322 2150 -256 
L 1766 141 
Q 2931 678 3353 1644 
Q 3619 2263 3647 3275 
L 2097 3275 
Q 1694 2456 972 1784 
L 594 2128 
Q 1781 3203 2138 4966 
L 2628 4856 
Q 2503 4281 2303 3744 
L 5638 3744 
L 5638 3275 
z
" transform="scale(0.015625)"/>
        <path id="IPAexGothic-30e9" d="M 1447 4709 
L 4922 4709 
L 4922 4234 
L 1447 4234 
L 1447 4709 
z
M 897 3303 
L 5172 3303 
L 5478 3013 
Q 5069 1669 4219 875 
Q 3475 181 2306 -181 
L 1972 294 
Q 4150 784 4834 2828 
L 897 2828 
L 897 3303 
z
" transform="scale(0.015625)"/>
       </defs>
       <use xlink:href="#IPAexGothic-30ca"/>
       <use xlink:href="#IPAexGothic-30ac" x="100"/>
       <use xlink:href="#IPAexGothic-30ec" x="200"/>
       <use xlink:href="#IPAexGothic-30c8" x="300"/>
       <use xlink:href="#IPAexGothic-30d3" x="400"/>
       <use xlink:href="#IPAexGothic-30b1" x="500"/>
       <use xlink:href="#IPAexGothic-30e9" x="600"/>
      </g>
     </g>
    </g>
    <g id="ytick_2">
     <g id="line2d_17">
      <path d="M 114.2 217.794462 
L 471.32 217.794462 
" clip-path="url(#pf9c0dc3474)" style="fill: none; stroke: #ffffff; stroke-width: 0.8; stroke-linecap: square"/>
     </g>
     <g id="line2d_18">
      <g>
       <use xlink:href="#m0f9f383b40" x="114.2" y="217.794462" style="fill: #555555; stroke: #555555; stroke-width: 0.8"/>
      </g>
     </g>
     <g id="text_10">
      <!-- ガムシ -->
      <g style="fill: #555555" transform="translate(77.2 221.539774)scale(0.1 -0.1)">
       <defs>
        <path id="IPAexGothic-30e0" d="M 609 891 
L 719 897 
L 884 903 
Q 1053 916 1263 925 
Q 1413 931 1447 934 
Q 2291 2888 2856 4706 
L 3394 4525 
Q 2841 2859 2019 981 
Q 3553 1109 4659 1275 
Q 4200 1950 3669 2588 
L 4122 2838 
Q 5075 1700 5788 513 
L 5319 194 
Q 5038 691 4922 866 
Q 2919 509 822 328 
L 609 891 
z
" transform="scale(0.015625)"/>
        <path id="IPAexGothic-30b7" d="M 2828 3531 
Q 2219 4056 1613 4359 
L 1913 4781 
Q 2503 4491 3169 3981 
L 2828 3531 
z
M 1163 500 
Q 3944 1094 5338 3525 
L 5688 3128 
Q 4297 700 1484 0 
L 1163 500 
z
M 2072 2278 
Q 1466 2800 831 3109 
L 1131 3541 
Q 1806 3213 2406 2725 
L 2072 2278 
z
" transform="scale(0.015625)"/>
       </defs>
       <use xlink:href="#IPAexGothic-30ac"/>
       <use xlink:href="#IPAexGothic-30e0" x="100"/>
       <use xlink:href="#IPAexGothic-30b7" x="200"/>
      </g>
     </g>
    </g>
    <g id="ytick_3">
     <g id="line2d_19">
      <path d="M 114.2 186.779077 
L 471.32 186.779077 
" clip-path="url(#pf9c0dc3474)" style="fill: none; stroke: #ffffff; stroke-width: 0.8; stroke-linecap: square"/>
     </g>
     <g id="line2d_20">
      <g>
       <use xlink:href="#m0f9f383b40" x="114.2" y="186.779077" style="fill: #555555; stroke: #555555; stroke-width: 0.8"/>
      </g>
     </g>
     <g id="text_11">
      <!-- ミドリカワゲラ -->
      <g style="fill: #555555" transform="translate(37.2 190.524389)scale(0.1 -0.1)">
       <defs>
        <path id="IPAexGothic-30df" d="M 4606 3353 
Q 3022 4028 1600 4375 
L 1888 4806 
Q 3403 4425 4881 3813 
L 4606 3353 
z
M 4184 1863 
Q 2906 2466 1747 2763 
L 2028 3213 
Q 3169 2903 4466 2328 
L 4184 1863 
z
M 4631 -159 
Q 3119 638 1125 1234 
L 1413 1678 
Q 3228 1169 4953 319 
L 4631 -159 
z
" transform="scale(0.015625)"/>
        <path id="IPAexGothic-30c9" d="M 2247 4959 
L 2766 4959 
L 2766 3169 
Q 4050 2581 5178 1850 
L 4841 1331 
Q 3781 2138 2766 2650 
L 2766 -225 
L 2247 -225 
L 2247 4959 
z
M 5263 3847 
Q 4900 4388 4506 4716 
L 4806 4947 
Q 5191 4638 5581 4122 
L 5263 3847 
z
M 4666 3378 
Q 4375 3869 3931 4269 
L 4244 4513 
Q 4616 4206 5000 3653 
L 4666 3378 
z
" transform="scale(0.015625)"/>
        <path id="IPAexGothic-30ea" d="M 1678 4788 
L 2222 4788 
L 2222 1900 
L 1678 1900 
L 1678 4788 
z
M 4084 4909 
L 4628 4909 
L 4628 2753 
Q 4628 1563 4150 794 
Q 3725 119 2772 -353 
L 2394 78 
Q 3334 494 3706 1094 
Q 4084 1703 4084 2725 
L 4084 4909 
z
" transform="scale(0.015625)"/>
        <path id="IPAexGothic-30ab" d="M 2734 4981 
L 3247 4981 
L 3247 3694 
L 5250 3694 
L 5250 3491 
L 5250 3425 
Q 5250 1334 5019 500 
Q 4856 -84 4297 -84 
Q 3788 -84 3247 172 
L 3228 731 
Q 3859 441 4200 441 
Q 4484 441 4553 763 
Q 4706 1478 4738 3234 
L 3206 3234 
Q 3025 906 1159 -134 
L 769 263 
Q 2519 1134 2700 3209 
L 916 3209 
L 916 3669 
L 2734 3669 
L 2734 4981 
z
" transform="scale(0.015625)"/>
        <path id="IPAexGothic-30ef" d="M 1031 4391 
L 5025 4391 
L 5350 4097 
Q 5131 2372 4456 1375 
Q 3800 400 2509 -116 
L 2131 325 
Q 3478 775 4078 1753 
Q 4625 2647 4769 3903 
L 1575 3903 
L 1575 2363 
L 1031 2363 
L 1031 4391 
z
" transform="scale(0.015625)"/>
        <path id="IPAexGothic-30b2" d="M 5653 3269 
L 4194 3269 
Q 4156 1966 3753 1228 
Q 3256 316 2166 -266 
L 1781 131 
Q 2947 672 3369 1638 
Q 3634 2256 3663 3269 
L 2113 3269 
Q 1709 2450 988 1778 
L 609 2122 
Q 1797 3197 2153 4959 
L 2644 4850 
Q 2519 4275 2319 3738 
L 5653 3738 
L 5653 3269 
z
M 5838 4366 
Q 5478 4906 5084 5234 
L 5384 5466 
Q 5769 5156 6159 4641 
L 5838 4366 
z
M 5191 3950 
Q 4903 4438 4456 4838 
L 4769 5081 
Q 5141 4775 5525 4225 
L 5191 3950 
z
" transform="scale(0.015625)"/>
       </defs>
       <use xlink:href="#IPAexGothic-30df"/>
       <use xlink:href="#IPAexGothic-30c9" x="100"/>
       <use xlink:href="#IPAexGothic-30ea" x="200"/>
       <use xlink:href="#IPAexGothic-30ab" x="300"/>
       <use xlink:href="#IPAexGothic-30ef" x="400"/>
       <use xlink:href="#IPAexGothic-30b2" x="500"/>
       <use xlink:href="#IPAexGothic-30e9" x="600"/>
      </g>
     </g>
    </g>
    <g id="ytick_4">
     <g id="line2d_21">
      <path d="M 114.2 155.763692 
L 471.32 155.763692 
" clip-path="url(#pf9c0dc3474)" style="fill: none; stroke: #ffffff; stroke-width: 0.8; stroke-linecap: square"/>
     </g>
     <g id="line2d_22">
      <g>
       <use xlink:href="#m0f9f383b40" x="114.2" y="155.763692" style="fill: #555555; stroke: #555555; stroke-width: 0.8"/>
      </g>
     </g>
     <g id="text_12">
      <!-- シマトビケラ -->
      <g style="fill: #555555" transform="translate(47.2 159.509005)scale(0.1 -0.1)">
       <defs>
        <path id="IPAexGothic-30de" d="M 5422 4122 
L 5703 3822 
Q 4659 2491 3388 1447 
Q 3816 994 4231 500 
L 3797 122 
Q 2866 1381 1691 2322 
L 2069 2644 
Q 2481 2322 3059 1772 
Q 4163 2703 4891 3641 
L 744 3603 
L 744 4084 
L 5422 4122 
z
" transform="scale(0.015625)"/>
       </defs>
       <use xlink:href="#IPAexGothic-30b7"/>
       <use xlink:href="#IPAexGothic-30de" x="100"/>
       <use xlink:href="#IPAexGothic-30c8" x="200"/>
       <use xlink:href="#IPAexGothic-30d3" x="300"/>
       <use xlink:href="#IPAexGothic-30b1" x="400"/>
       <use xlink:href="#IPAexGothic-30e9" x="500"/>
      </g>
     </g>
    </g>
    <g id="ytick_5">
     <g id="line2d_23">
      <path d="M 114.2 124.748308 
L 471.32 124.748308 
" clip-path="url(#pf9c0dc3474)" style="fill: none; stroke: #ffffff; stroke-width: 0.8; stroke-linecap: square"/>
     </g>
     <g id="line2d_24">
      <g>
       <use xlink:href="#m0f9f383b40" x="114.2" y="124.748308" style="fill: #555555; stroke: #555555; stroke-width: 0.8"/>
      </g>
     </g>
     <g id="text_13">
      <!-- ヘビトンボ -->
      <g style="fill: #555555" transform="translate(57.2 128.49362)scale(0.1 -0.1)">
       <defs>
        <path id="IPAexGothic-30d8" d="M 428 1991 
Q 1119 2547 2100 3681 
Q 2356 3975 2566 3975 
Q 2772 3975 3181 3584 
Q 4328 2475 5950 1356 
L 5600 863 
Q 3994 2081 2816 3241 
Q 2653 3394 2584 3394 
Q 2513 3394 2291 3125 
Q 1706 2384 775 1528 
L 428 1991 
z
" transform="scale(0.015625)"/>
        <path id="IPAexGothic-30f3" d="M 2444 3084 
Q 1816 3656 1056 4084 
L 1381 4519 
Q 2063 4191 2816 3559 
L 2444 3084 
z
M 1100 609 
Q 3984 1106 5216 3828 
L 5619 3469 
Q 4413 794 1434 103 
L 1100 609 
z
" transform="scale(0.015625)"/>
        <path id="IPAexGothic-30dc" d="M 2972 4953 
L 3478 4953 
L 3478 3769 
L 5584 3769 
L 5584 3316 
L 3478 3316 
L 3478 372 
Q 3478 -172 2844 -172 
Q 2431 -172 2019 -97 
L 1909 434 
Q 2300 334 2716 334 
Q 2972 334 2972 591 
L 2972 3316 
L 822 3316 
L 822 3769 
L 2972 3769 
L 2972 4953 
z
M 603 897 
Q 988 1269 1222 1666 
Q 1438 2038 1600 2547 
L 2050 2344 
Q 1859 1741 1588 1300 
Q 1372 950 1000 531 
L 603 897 
z
M 5313 684 
Q 4847 1672 4309 2363 
L 4719 2631 
Q 5269 1991 5775 1006 
L 5313 684 
z
M 5728 4391 
Q 5369 4931 4975 5259 
L 5275 5491 
Q 5659 5181 6050 4666 
L 5728 4391 
z
M 5091 3969 
Q 4800 4459 4353 4856 
L 4666 5100 
Q 5038 4794 5422 4244 
L 5091 3969 
z
" transform="scale(0.015625)"/>
       </defs>
       <use xlink:href="#IPAexGothic-30d8"/>
       <use xlink:href="#IPAexGothic-30d3" x="100"/>
       <use xlink:href="#IPAexGothic-30c8" x="200"/>
       <use xlink:href="#IPAexGothic-30f3" x="300"/>
       <use xlink:href="#IPAexGothic-30dc" x="400"/>
      </g>
     </g>
    </g>
    <g id="ytick_6">
     <g id="line2d_25">
      <path d="M 114.2 93.732923 
L 471.32 93.732923 
" clip-path="url(#pf9c0dc3474)" style="fill: none; stroke: #ffffff; stroke-width: 0.8; stroke-linecap: square"/>
     </g>
     <g id="line2d_26">
      <g>
       <use xlink:href="#m0f9f383b40" x="114.2" y="93.732923" style="fill: #555555; stroke: #555555; stroke-width: 0.8"/>
      </g>
     </g>
     <g id="text_14">
      <!-- ヒメシロカゲロウ -->
      <g style="fill: #555555" transform="translate(27.2 97.478236)scale(0.1 -0.1)">
       <defs>
        <path id="IPAexGothic-30d2" d="M 1375 4806 
L 1900 4806 
L 1900 2809 
Q 3572 3188 4766 3922 
L 5150 3506 
Q 3663 2716 1900 2328 
L 1900 1094 
Q 1900 775 2091 700 
Q 2288 616 3181 616 
Q 4184 616 5413 750 
L 5413 238 
Q 4275 128 3281 128 
Q 1956 128 1663 325 
Q 1375 509 1375 997 
L 1375 4806 
z
" transform="scale(0.015625)"/>
        <path id="IPAexGothic-30e1" d="M 2041 3641 
Q 2678 3259 3359 2747 
Q 3906 3678 4281 4819 
L 4784 4609 
Q 4347 3384 3756 2425 
Q 4225 2031 4925 1369 
L 4544 972 
Q 4031 1519 3475 1997 
Q 2522 650 1259 -172 
L 863 206 
Q 2197 1006 3091 2328 
Q 2456 2844 1700 3263 
L 2041 3641 
z
" transform="scale(0.015625)"/>
        <path id="IPAexGothic-30ed" d="M 1147 4269 
L 5250 4269 
L 5250 172 
L 4725 172 
L 4725 569 
L 1672 569 
L 1672 172 
L 1147 172 
L 1147 4269 
z
M 1672 3781 
L 1672 1063 
L 4725 1063 
L 4725 3781 
L 1672 3781 
z
" transform="scale(0.015625)"/>
        <path id="IPAexGothic-30a6" d="M 2866 4981 
L 3391 4981 
L 3391 3963 
L 4991 3963 
L 5297 3713 
Q 5134 1969 4381 1044 
Q 3719 216 2500 -219 
L 2131 225 
Q 3409 597 4056 1466 
Q 4591 2197 4734 3488 
L 1588 3488 
L 1588 2053 
L 1075 2053 
L 1075 3963 
L 2866 3963 
L 2866 4981 
z
" transform="scale(0.015625)"/>
       </defs>
       <use xlink:href="#IPAexGothic-30d2"/>
       <use xlink:href="#IPAexGothic-30e1" x="100"/>
       <use xlink:href="#IPAexGothic-30b7" x="200"/>
       <use xlink:href="#IPAexGothic-30ed" x="300"/>
       <use xlink:href="#IPAexGothic-30ab" x="400"/>
       <use xlink:href="#IPAexGothic-30b2" x="500"/>
       <use xlink:href="#IPAexGothic-30ed" x="600"/>
       <use xlink:href="#IPAexGothic-30a6" x="700"/>
      </g>
     </g>
    </g>
    <g id="ytick_7">
     <g id="line2d_27">
      <path d="M 114.2 62.717538 
L 471.32 62.717538 
" clip-path="url(#pf9c0dc3474)" style="fill: none; stroke: #ffffff; stroke-width: 0.8; stroke-linecap: square"/>
     </g>
     <g id="line2d_28">
      <g>
       <use xlink:href="#m0f9f383b40" x="114.2" y="62.717538" style="fill: #555555; stroke: #555555; stroke-width: 0.8"/>
      </g>
     </g>
     <g id="text_15">
      <!-- ニンギョウトビケラ -->
      <g style="fill: #555555" transform="translate(17.2 66.462851)scale(0.1 -0.1)">
       <defs>
        <path id="IPAexGothic-30cb" d="M 1344 3916 
L 5056 3916 
L 5056 3416 
L 1344 3416 
L 1344 3916 
z
M 659 1172 
L 5741 1172 
L 5741 666 
L 659 666 
L 659 1172 
z
" transform="scale(0.015625)"/>
        <path id="IPAexGothic-30ae" d="M 2919 5056 
L 3169 3834 
L 4884 4128 
L 4969 3681 
L 3253 3397 
L 3475 2284 
L 5634 2656 
L 5722 2194 
L 3566 1844 
L 3969 -147 
L 3475 -263 
L 3072 1759 
L 834 1388 
L 744 1856 
L 2984 2203 
L 2759 3316 
L 1019 3034 
L 941 3488 
L 2669 3756 
L 2428 4959 
L 2919 5056 
z
M 5916 4434 
Q 5553 4978 5159 5306 
L 5459 5538 
Q 5844 5228 6234 4709 
L 5916 4434 
z
M 5319 3969 
Q 5028 4459 4584 4856 
L 4897 5100 
Q 5269 4794 5653 4244 
L 5319 3969 
z
" transform="scale(0.015625)"/>
        <path id="IPAexGothic-30e7" d="M 1625 3469 
L 4653 3469 
L 4653 0 
L 4172 0 
L 4172 294 
L 1553 294 
L 1553 753 
L 4172 753 
L 4172 1734 
L 1766 1734 
L 1766 2169 
L 4172 2169 
L 4172 3028 
L 1625 3028 
L 1625 3469 
z
" transform="scale(0.015625)"/>
       </defs>
       <use xlink:href="#IPAexGothic-30cb"/>
       <use xlink:href="#IPAexGothic-30f3" x="100"/>
       <use xlink:href="#IPAexGothic-30ae" x="200"/>
       <use xlink:href="#IPAexGothic-30e7" x="300"/>
       <use xlink:href="#IPAexGothic-30a6" x="400"/>
       <use xlink:href="#IPAexGothic-30c8" x="500"/>
       <use xlink:href="#IPAexGothic-30d3" x="600"/>
       <use xlink:href="#IPAexGothic-30b1" x="700"/>
       <use xlink:href="#IPAexGothic-30e9" x="800"/>
      </g>
     </g>
    </g>
    <g id="ytick_8">
     <g id="line2d_29">
      <path d="M 114.2 31.702154 
L 471.32 31.702154 
" clip-path="url(#pf9c0dc3474)" style="fill: none; stroke: #ffffff; stroke-width: 0.8; stroke-linecap: square"/>
     </g>
     <g id="line2d_30">
      <g>
       <use xlink:href="#m0f9f383b40" x="114.2" y="31.702154" style="fill: #555555; stroke: #555555; stroke-width: 0.8"/>
      </g>
     </g>
     <g id="text_16">
      <!-- ヒゲナガカワトビケラ -->
      <g style="fill: #555555" transform="translate(7.2 35.447466)scale(0.1 -0.1)">
       <use xlink:href="#IPAexGothic-30d2"/>
       <use xlink:href="#IPAexGothic-30b2" x="100"/>
       <use xlink:href="#IPAexGothic-30ca" x="200"/>
       <use xlink:href="#IPAexGothic-30ac" x="300"/>
       <use xlink:href="#IPAexGothic-30ab" x="400"/>
       <use xlink:href="#IPAexGothic-30ef" x="500"/>
       <use xlink:href="#IPAexGothic-30c8" x="600"/>
       <use xlink:href="#IPAexGothic-30d3" x="700"/>
       <use xlink:href="#IPAexGothic-30b1" x="800"/>
       <use xlink:href="#IPAexGothic-30e9" x="900"/>
      </g>
     </g>
    </g>
   </g>
   <g id="patch_3">
    <path d="M 114.2 261.216 
L 454.314286 261.216 
L 454.314286 236.403692 
L 114.2 236.403692 
z
" clip-path="url(#pf9c0dc3474)" style="fill: #e24a33"/>
   </g>
   <g id="patch_4">
    <path d="M 114.2 230.200615 
L 227.571429 230.200615 
L 227.571429 205.388308 
L 114.2 205.388308 
z
" clip-path="url(#pf9c0dc3474)" style="fill: #e24a33"/>
   </g>
   <g id="patch_5">
    <path d="M 114.2 199.185231 
L 284.257143 199.185231 
L 284.257143 174.372923 
L 114.2 174.372923 
z
" clip-path="url(#pf9c0dc3474)" style="fill: #e24a33"/>
   </g>
   <g id="patch_6">
    <path d="M 114.2 168.169846 
L 170.885714 168.169846 
L 170.885714 143.357538 
L 114.2 143.357538 
z
" clip-path="url(#pf9c0dc3474)" style="fill: #e24a33"/>
   </g>
   <g id="patch_7">
    <path d="M 114.2 137.154462 
L 170.885714 137.154462 
L 170.885714 112.342154 
L 114.2 112.342154 
z
" clip-path="url(#pf9c0dc3474)" style="fill: #e24a33"/>
   </g>
   <g id="patch_8">
    <path d="M 114.2 106.139077 
L 227.571429 106.139077 
L 227.571429 81.326769 
L 114.2 81.326769 
z
" clip-path="url(#pf9c0dc3474)" style="fill: #e24a33"/>
   </g>
   <g id="patch_9">
    <path d="M 114.2 75.123692 
L 227.571429 75.123692 
L 227.571429 50.311385 
L 114.2 50.311385 
z
" clip-path="url(#pf9c0dc3474)" style="fill: #e24a33"/>
   </g>
   <g id="patch_10">
    <path d="M 114.2 44.108308 
L 170.885714 44.108308 
L 170.885714 19.296 
L 114.2 19.296 
z
" clip-path="url(#pf9c0dc3474)" style="fill: #e24a33"/>
   </g>
   <g id="patch_11">
    <path d="M 114.2 273.312 
L 114.2 7.2 
" style="fill: none; stroke: #ffffff; stroke-linejoin: miter; stroke-linecap: square"/>
   </g>
   <g id="patch_12">
    <path d="M 471.32 273.312 
L 471.32 7.2 
" style="fill: none; stroke: #ffffff; stroke-linejoin: miter; stroke-linecap: square"/>
   </g>
   <g id="patch_13">
    <path d="M 114.2 273.312 
L 471.32 273.312 
" style="fill: none; stroke: #ffffff; stroke-linejoin: miter; stroke-linecap: square"/>
   </g>
   <g id="patch_14">
    <path d="M 114.2 7.2 
L 471.32 7.2 
" style="fill: none; stroke: #ffffff; stroke-linejoin: miter; stroke-linecap: square"/>
   </g>
  </g>
 </g>
 <defs>
  <clipPath id="pf9c0dc3474">
   <rect x="114.2" y="7.2" width="357.12" height="266.112"/>
  </clipPath>
 </defs>
</svg>
